<svg xmlns="http://www.w3.org/2000/svg" xmlns:xlink="http://www.w3.org/1999/xlink" version="1.1" width="256" height="256" viewBox="0 0 256 256" xml:space="preserve">
<g style="stroke: none; stroke-width: 0; stroke-dasharray: none; stroke-linecap: butt; stroke-linejoin: miter; stroke-miterlimit: 10; fill: none; fill-rule: nonzero; opacity: 1;" transform="translate(1.4065934065934016 1.4065934065934016) scale(2.81 2.81)">
	<path d="M 76.068 86.995 H 13.932 c -2.641 0 -4.791 -2.149 -4.791 -4.791 V 33.373 H 4.797 c -2.252 0 -4.122 -1.47 -4.654 -3.658 c -0.532 -2.188 0.454 -4.353 2.454 -5.387 L 42.8 3.54 c 0 0 0.001 0 0.001 0 c 1.378 -0.711 3.022 -0.711 4.399 0 l 40.204 20.788 c 2 1.034 2.986 3.199 2.454 5.387 c -0.532 2.189 -2.402 3.659 -4.655 3.659 h -4.344 v 48.832 C 80.858 84.846 78.71 86.995 76.068 86.995 z M 10.35 33.373 h 0.01 H 10.35 z" style="stroke: none; stroke-width: 1; stroke-dasharray: none; stroke-linecap: butt; stroke-linejoin: miter; stroke-miterlimit: 10; fill: rgb(236,3,124); fill-rule: nonzero; opacity: 1;" transform=" matrix(1 0 0 1 0 0) " stroke-linecap="round"/>
	<path d="M 39.595 48.992 c -1.104 0 -2 -0.896 -2 -2 v -4.688 c 0 -0.33 -0.269 -0.599 -0.599 -0.599 h -8.425 c -0.331 0 -0.599 0.269 -0.599 0.599 v 4.688 c 0 1.104 -0.896 2 -2 2 s -2 -0.896 -2 -2 v -4.688 c 0 -2.536 2.063 -4.599 4.599 -4.599 h 8.425 c 2.536 0 4.599 2.063 4.599 4.599 v 4.688 C 41.595 48.097 40.7 48.992 39.595 48.992 z" style="stroke: none; stroke-width: 1; stroke-dasharray: none; stroke-linecap: butt; stroke-linejoin: miter; stroke-miterlimit: 10; fill: rgb(27,28,28); fill-rule: nonzero; opacity: 1;" transform=" matrix(1 0 0 1 0 0) " stroke-linecap="round"/>
	<path d="M 64.027 48.992 c -1.104 0 -2 -0.896 -2 -2 v -4.688 c 0 -0.33 -0.269 -0.599 -0.599 -0.599 h -8.425 c -0.331 0 -0.6 0.269 -0.6 0.599 v 4.688 c 0 1.104 -0.896 2 -2 2 s -2 -0.896 -2 -2 v -4.688 c 0 -2.536 2.063 -4.599 4.6 -4.599 h 8.425 c 2.536 0 4.599 2.063 4.599 4.599 v 4.688 C 66.027 48.097 65.132 48.992 64.027 48.992 z" style="stroke: none; stroke-width: 1; stroke-dasharray: none; stroke-linecap: butt; stroke-linejoin: miter; stroke-miterlimit: 10; fill: rgb(27,28,28); fill-rule: nonzero; opacity: 1;" transform=" matrix(1 0 0 1 0 0) " stroke-linecap="round"/>
	<path d="M 45 71.426 c -6.925 0 -13.838 -3.985 -20.549 -11.845 c -0.507 -0.594 -0.622 -1.428 -0.295 -2.137 c 0.327 -0.708 1.036 -1.162 1.816 -1.162 h 38.055 c 0.78 0 1.489 0.454 1.816 1.162 c 0.326 0.709 0.211 1.543 -0.295 2.137 C 58.839 67.44 51.925 71.426 45 71.426 z M 30.571 60.282 c 4.877 4.744 9.718 7.144 14.43 7.144 s 9.552 -2.399 14.429 -7.144 H 30.571 z" style="stroke: none; stroke-width: 1; stroke-dasharray: none; stroke-linecap: butt; stroke-linejoin: miter; stroke-miterlimit: 10; fill: rgb(27,28,28); fill-rule: nonzero; opacity: 1;" transform=" matrix(1 0 0 1 0 0) " stroke-linecap="round"/>
</g>
</svg>